<svg xmlns="http://www.w3.org/2000/svg" width="40" height="40" viewBox="0 0 40 40">
    <path fill="gray" fill-rule="nonzero" d="M36.97 0H2.95C1.32 0 0 1.28 0 2.86v34.197c0 1.58 1.321 2.861 2.95 2.861h34.02c1.629 0 2.948-1.282 2.948-2.861V2.86c0-1.58-1.319-2.86-2.948-2.86zM12.102 33.414H6.071V15.392h6.031v18.022zM9.087 12.93h-.04c-2.023 0-3.334-1.383-3.334-3.114 0-1.767 1.35-3.113 3.412-3.113 2.063 0 3.332 1.346 3.372 3.113 0 1.732-1.309 3.114-3.41 3.114zm24.756 20.485h-6.03v-9.642c0-2.423-.873-4.077-3.053-4.077-1.668 0-2.658 1.116-3.093 2.193-.161.384-.201.922-.201 1.46v10.066h-6.029s.08-16.332 0-18.023h6.03v2.555c.8-1.227 2.23-2.979 5.432-2.979 3.968 0 6.944 2.575 6.944 8.113v10.334zM21.43 18.01c.01-.019.026-.04.042-.062v.062h-.042z"/>
</svg>
