<svg xmlns="http://www.w3.org/2000/svg" width="40" height="40" viewBox="0 0 40 40">
    <g fill="none" fill-rule="nonzero" opacity=".8">
        <path fill="#fff" d="M0 0h40v40H0z"/>
        <path fill="#18181D" d="M9.545 13.378a1.04 1.04 0 0 0-.338-.878l-2.51-3.023v-.451h7.791l6.022 13.206 5.294-13.206h7.427v.451l-2.145 2.057a.627.627 0 0 0-.239.602v15.113a.627.627 0 0 0 .239.602l2.095 2.056v.452H22.643v-.452l2.17-2.107c.213-.213.213-.275.213-.602V14.983l-6.034 15.326h-.815L11.15 14.983v10.272c-.058.431.085.866.39 1.178l2.822 3.424v.452H6.359v-.452l2.823-3.424c.301-.312.437-.75.363-1.178V13.378z"/>
    </g>
</svg>
