<svg xmlns="http://www.w3.org/2000/svg" width="48" height="40" viewBox="0 0 48 40">
    <path fill="#DDD" fill-rule="nonzero" d="M48 5.043a19.51 19.51 0 0 1-5.654 1.567 9.97 9.97 0 0 0 4.328-5.5 19.731 19.731 0 0 1-6.257 2.415A9.773 9.773 0 0 0 33.231.384c-5.438 0-9.847 4.453-9.847 9.943 0 .779.087 1.54.255 2.266C15.456 12.178 8.2 8.218 3.344 2.201a9.947 9.947 0 0 0-1.331 5c0 3.45 1.74 6.495 4.379 8.277a9.773 9.773 0 0 1-4.46-1.249v.125c0 4.817 3.395 8.837 7.897 9.752a9.88 9.88 0 0 1-2.594.349 9.36 9.36 0 0 1-1.854-.185c1.254 3.954 4.89 6.829 9.196 6.908a19.63 19.63 0 0 1-12.228 4.25A20.72 20.72 0 0 1 0 35.292a27.632 27.632 0 0 0 15.093 4.475c18.114 0 28.015-15.155 28.015-28.298l-.033-1.287A19.773 19.773 0 0 0 48 5.043z" opacity=".5"/>
</svg>
